<?xml version="1.0" ?>
<svg height="512" id="svg2" version="1.1" width="512" xmlns="http://www.w3.org/2000/svg" xmlns:svg="http://www.w3.org/2000/svg">
<g id="layer1" transform="translate(0,-540.3622)" stroke-width="0">
<path d="m 280.55482,571.22252 a 20.002,20.002 0 0 0 -2.78125,0.28125 l -176.90625,0 a 20.002,20.002 0 0 0 -20.000003,20 l 0,410.00003 a 20.002,20.002 0 0 0 20.000003,20 l 310,0 a 20.002,20.002 0 0 0 20,-20 l 0,-276.75003 a 20.002,20.002 0 0 0 -7.53125,-19.09375 L 296.61732,578.94127 a 20.002,20.002 0 0 0 -16.0625,-7.71875 z m -159.6875,40.28125 140,0 0,106.78125 a 20.002,20.002 0 0 0 5.75,17.53125 20.002,20.002 0 0 0 0.15625,0.15625 20.002,20.002 0 0 0 0.28125,0.25 20.002,20.002 0 0 0 17.09375,5.28125 l 106.71875,0 0,240 -270,0 0,-370 z m 180,28.28125 61.71875,61.71875 -61.71875,0 0,-61.71875 z" />
</g>
</svg>